# xmcd
#
# Track frame offsets: 
#        150
#        17744
#        35272
#        53467
#        73414
#        89413
#        109977
#        133555
#        156989
#        175316
#        191941
#        206547
#        235516
#        256136
#        274319
#        293614
#        315618
#        332608
#
# Disc length: 4653 seconds
#
# Revision: 11
# Processed by: cddbd v1.5.2PL0 Copyright (c) Steve Scherf et al.
# Submitted via: ExactAudioCopy v1.1
#
DISCID=04122b12
DTITLE=Various Artist - Kuschelrock 21 [CD1)
DYEAR=2007
DGENRE=Pop, Rock
TTITLE0=Shakira feat. Carlos Santana - Illegal
TTITLE1=Ville Valo and Natalia Avelon - Summer Wine
TTITLE2=Christina Aguilera - Hurt
TTITLE3=Maria Mean - Just Hold Me
TTITLE4=Natasha Bedingfield - Soulmate
TTITLE5=P!nk feat. Indigo Girls - Dear Mr. President
TTITLE6=Justin Timberlake - What Goes Around... Comes Around
TTITLE7=Xavier Naidoo - Abschied nehmen
TTITLE8=Melanie C - First Day Of My Life
TTITLE9=Mars - Reason
TTITLE10=Mark Medlock - Now Or Never
TTITLE11=All Saints - Never Ever
TTITLE12=Aimee Mann - Save Me
TTITLE13=Sarah McLachlan - Adia
TTITLE14=Corrs - Forgiven Not Forgotten
TTITLE15=George Michael feat. Mutya - This Is Not Real Love
TTITLE16=Michael Bublé - Home
TTITLE17=Katie Melua - If You Were A Sailboat
EXTD=YEAR: 2007
EXTT0=
EXTT1=
EXTT2=
EXTT3=
EXTT4=
EXTT5=
EXTT6=
EXTT7=
EXTT8=
EXTT9=
EXTT10=
EXTT11=
EXTT12=
EXTT13=
EXTT14=
EXTT15=
EXTT16=
EXTT17=
PLAYORDER=
